<svg width="75" height="24" viewBox="0 0 75 24" fill="none" xmlns="http://www.w3.org/2000/svg">
<path fill-rule="evenodd" clip-rule="evenodd" d="M0.0416504 11.2941L5.64706 15.7244V24H0L0.0416504 11.2941ZM55.3509 23.9185L56.8004 20.2988L56.8077 20.314L64.9412 0.0303223H64.9285L58.6901 0H58.6756C57.4897 2.97536 56.3021 5.94504 55.1162 8.91282L53.674 12.5098L53.6812 12.525L52.2244 16.1826C50.0855 10.7776 47.9412 5.39735 45.7732 0L39.5294 0.0303223L49.127 24L55.3509 23.9185ZM29.6471 24H35.2941V0H29.6471V24ZM69.1765 24H74.8236V0H69.1765V24ZM12.6387 10.3773L25.4118 0V8.00484C21.14 11.4789 16.9326 14.877 12.6589 18.3529C8.45156 14.9081 4.22946 11.4789 0 8.05155V0.0681183L12.6387 10.3773ZM25.4118 11.2941V24H19.7647V15.7834C21.6517 14.2917 23.5317 12.7929 25.4118 11.2941Z" fill="#00FF00"/>
</svg>
